# xmcd
#
# Track frame offsets: 
#        150
#        27067
#        60442
#        81615
#        103047
#        125402
#        146420
#        174920
#        201275
#        237582
#        276737
#
# Disc length: 3980 seconds
#
# Revision: 0
# Processed by: cddbd v1.5.2PL0 Copyright (c) Steve Scherf et al.
# Submitted via: ExactAudioCopy v0.95b4
#
DISCID=a00f8a0b
DTITLE=Eric Clapton - Back Again 1994, London, England - February 21, 
DTITLE=1994 - CD2
DYEAR=1994
DGENRE=Blues
TTITLE0=Badge
TTITLE1=Wonderful Tonight
TTITLE2=Stone Free
TTITLE3=Circus Left Town
TTITLE4=Tears In Heaven
TTITLE5=Five Long Years
TTITLE6=Tearing Us Apart
TTITLE7=Crossroads
TTITLE8=Groaning The Blues
TTITLE9=Layla
TTITLE10=Ain't Nobody's Business
EXTD=
EXTT0=
EXTT1=
EXTT2=
EXTT3=
EXTT4=
EXTT5=
EXTT6=
EXTT7=
EXTT8=
EXTT9=
EXTT10=
PLAYORDER=
